<svg id="Logo_Standalone" xmlns="http://www.w3.org/2000/svg" viewBox="0 0 524.88 889.32"><defs><style>.cls-1{fill-rule:evenodd;}</style></defs><title>dluco</title><path id="Logo_Shape" class="cls-1" d="M587.17,642.53c-2.35-3.61-4.23-6.46-6.08-9.34-18.84-29.31-46-43.2-80.51-44C448,588.09,412,624.17,402.26,667,390.59,718.37,422.72,772.39,473.55,785,518.44,796,555.68,782.38,585,747c18-21.74,28.24-47.07,32.37-74.85C624,627.7,615,585.66,595.8,545.74c-19.3-40.09-43.64-77.29-68-114.43-18.51-28.21-37-56.49-54.62-85.24C459,323,447,298.76,440.82,272.26c-10.5-45-11.28-89.56,6.16-133.52,12.18-30.7,23-61.94,34.47-92.93,0.27-.72.57-1.42,1.15-2.86,0.84,1.74,1.46,3,2,4.2,21.32,47.21,42,94.73,64.1,141.58,29.76,63.08,62.59,124.57,100.51,183.2,13.38,20.69,27.85,40.68,41.44,61.24,24.16,36.56,44,75.24,56.89,117.31,9.61,31.43,15.13,63.55,14.23,96.44-0.94,34.36-3.4,68.85-14.74,101.49C716.75,835.62,659,896,569.16,922c-69.92,20.24-136.8,9.94-199.83-25.67-46.76-26.41-83-63.23-106.82-111.67A248.65,248.65,0,0,1,237.93,695c-6.17-72.93,18.41-134.62,69.2-186.23,21.13-21.47,46.73-36,76.44-42.38,19.48-4.21,39.29-4,59.05-3.16a144.63,144.63,0,0,1,62.23,16.52c26.6,14.08,45.94,35.34,60.18,61.46,10.52,19.29,18.6,39.54,21.94,61.43a134.09,134.09,0,0,1,.94,36.85C587.81,640.24,587.55,641,587.17,642.53ZM678.53,797.4c23.35-27.54,39.6-58.55,45.85-94.32s2.35-70.25-12-103.55C715.33,668,704.4,733.93,678.53,797.4ZM309.71,783.61c-18.32-65.91-21.76-132.63-11.44-200.2C282,612.15,274.43,643.15,274.9,676,275.46,715.41,288.11,751,309.71,783.61Z" transform="translate(-237 -42.95)"/></svg>